<?xml version="1.0" encoding="UTF-8" standalone="no"?>
<!-- Created with Inkscape (http://www.inkscape.org/) -->

<svg
   xmlns:dc="http://purl.org/dc/elements/1.1/"
   xmlns:cc="http://creativecommons.org/ns#"
   xmlns:rdf="http://www.w3.org/1999/02/22-rdf-syntax-ns#"
   xmlns:svg="http://www.w3.org/2000/svg"
   xmlns="http://www.w3.org/2000/svg"
   xmlns:sodipodi="http://sodipodi.sourceforge.net/DTD/sodipodi-0.dtd"
   xmlns:inkscape="http://www.inkscape.org/namespaces/inkscape"
   width="176.38889mm"
   height="176.38889mm"
   viewBox="0 0 176.38889 176.38889"
   version="1.1"
   id="svg1992"
   inkscape:version="0.92.5 (2060ec1f9f, 2020-04-08)"
   sodipodi:docname="logo_notext.svg">
  <defs
     id="defs1986" />
  <sodipodi:namedview
     id="base"
     pagecolor="#ffffff"
     bordercolor="#666666"
     borderopacity="1.0"
     inkscape:pageopacity="0.0"
     inkscape:pageshadow="2"
     inkscape:zoom="0.35"
     inkscape:cx="-203.80954"
     inkscape:cy="127.61902"
     inkscape:document-units="mm"
     inkscape:current-layer="layer1"
     showgrid="false"
     inkscape:window-width="1920"
     inkscape:window-height="1043"
     inkscape:window-x="2560"
     inkscape:window-y="0"
     inkscape:window-maximized="1"
     fit-margin-top="0"
     fit-margin-left="0"
     fit-margin-right="0"
     fit-margin-bottom="0" />
  <metadata
     id="metadata1989">
    <rdf:RDF>
      <cc:Work
         rdf:about="">
        <dc:format>image/svg+xml</dc:format>
        <dc:type
           rdf:resource="http://purl.org/dc/dcmitype/StillImage" />
        <dc:title></dc:title>
      </cc:Work>
    </rdf:RDF>
  </metadata>
  <g
     inkscape:label="Layer 1"
     inkscape:groupmode="layer"
     id="layer1"
     transform="translate(-16.88294,-6.21032)">
    <g
       id="g5041"
       transform="translate(-336.60354,-257.77195)">
      <path
         d="m 529.87536,352.17671 c 0,48.70838 -39.48606,88.19444 -88.19444,88.19444 -48.70838,0 -88.19444,-39.48606 -88.19444,-88.19444 0,-48.70803 39.48606,-88.19444 88.19444,-88.19444 48.70838,0 88.19444,39.48641 88.19444,88.19444"
         style="fill:#37ab9c;fill-opacity:1;fill-rule:nonzero;stroke:none;stroke-width:0.35277778"
         id="path4992"
         inkscape:connector-curvature="0" />
      <path
         d="m 451.58868,356.47584 c -2.11914,4.46899 -4.98228,9.82486 -8.84837,16.18509 -0.34784,0.57256 -0.70132,1.14794 -1.05939,1.7265 -0.35843,-0.57785 -0.71156,-1.15394 -1.05975,-1.7265 -13.74704,-22.61517 -14.81525,-32.53422 -14.81525,-35.03542 0,-7.01886 1.67569,-12.45376 4.8454,-15.71625 2.53083,-2.60455 6.44842,-4.0393 11.0296,-4.0393 4.58152,0 8.49877,1.43475 11.02995,4.0393 3.16935,3.26249 4.84505,8.69739 4.84505,15.71625 0,1.35079 -0.31539,4.86798 -2.76472,11.37179 l 4.74556,2.36538 c 2.83739,-7.39951 3.31082,-11.70587 3.31082,-13.73717 0,-8.42398 -2.19322,-15.13346 -6.34188,-19.40419 -3.5359,-3.63855 -8.8011,-5.64303 -14.82478,-5.64303 -6.02368,0 -11.28854,2.00448 -14.82478,5.64303 -4.14867,4.27073 -6.34189,10.98021 -6.34189,19.40419 0,3.65196 1.51871,14.6431 15.58572,37.78462 1.75295,2.8836 3.6195,5.82224 5.58095,8.78558 1.96038,-2.96193 3.82693,-5.89986 5.58094,-8.78629 4.01179,-6.59941 7.00017,-12.20752 9.22655,-16.94215 -1.74484,-0.19156 -3.44629,-0.85513 -4.89973,-1.99143"
         style="fill:#ffffff;fill-opacity:1;fill-rule:nonzero;stroke:none;stroke-width:0.35277778"
         id="path4994"
         inkscape:connector-curvature="0" />
      <path
         d="m 459.56957,364.21974 c -2.07363,4.12044 -4.63127,8.74854 -7.78616,13.93896 -3.60856,5.93654 -7.20725,11.30123 -10.1025,15.44355 -2.89595,-4.14302 -6.49463,-9.50772 -10.1032,-15.44355 -14.23035,-23.41104 -16.35513,-35.44394 -16.35513,-40.53311 0,-9.82874 2.71075,-17.81387 7.83837,-23.09178 4.54131,-4.6736 11.15378,-7.24711 18.61996,-7.24711 7.46549,0 14.07866,2.57351 18.61997,7.24711 5.12762,5.27791 7.83837,13.26304 7.83837,23.09178 0,3.14078 -0.81386,8.92986 -4.77626,18.39912 l 4.68877,2.51531 c 4.2351,-9.98432 5.37915,-16.643 5.37915,-20.91443 0,-11.23386 -3.22791,-20.49427 -9.33485,-26.77936 -5.54672,-5.70795 -13.5068,-8.8512 -22.41515,-8.8512 -8.90834,0 -16.86912,3.14325 -22.41514,8.8512 -6.10694,6.28509 -9.33485,15.5455 -9.33485,26.77936 0,6.89292 2.97109,19.99685 17.12559,43.2823 5.72559,9.41882 11.37709,17.36866 14.6244,21.77168 3.24732,-4.40231 8.89812,-12.35216 14.62441,-21.77238 3.25825,-5.36011 5.91749,-10.17411 8.09096,-14.5034 -1.73426,-0.25683 -3.41066,-0.98637 -4.82671,-2.18405"
         style="fill:#ffffff;fill-opacity:1;fill-rule:nonzero;stroke:none;stroke-width:0.35277778"
         id="path4996"
         inkscape:connector-curvature="0" />
      <path
         d="m 467.46538,372.01045 c -1.96074,3.70558 -4.17089,7.58684 -6.63822,11.6459 -8.77111,14.42861 -17.39335,25.50266 -17.75601,25.96691 l -1.3903,1.77906 -1.38994,-1.77906 c -0.36301,-0.46425 -8.98525,-11.5383 -17.75601,-25.96691 -11.8745,-19.53436 -17.89571,-35.02166 -17.89571,-46.0308 0,-12.63861 3.74544,-23.17432 10.83133,-30.46694 6.55179,-6.74194 15.85983,-10.45528 26.21033,-10.45528 10.3505,0 19.6589,3.71334 26.21033,10.45528 7.0859,7.29262 10.83134,17.82833 10.83134,30.46694 0,7.07426 -2.48991,15.99989 -7.41751,26.65766 l 4.87574,2.02776 c 5.20383,-11.32628 7.83344,-20.9303 7.83344,-28.68542 0,-14.04337 -4.26297,-25.85402 -12.32782,-34.15453 -7.5565,-7.77628 -18.21251,-12.05935 -30.00552,-12.05935 -11.79301,0 -22.44901,4.28307 -30.00551,12.05935 -8.06485,8.30051 -12.32782,20.11116 -12.32782,34.15453 0,11.99304 6.28015,28.40496 18.66547,48.77929 8.93163,14.69249 17.73767,26.00219 18.10773,26.47633 l 5.56013,7.11658 5.56013,-7.11658 c 0.37042,-0.47414 9.17646,-11.78384 18.10773,-26.47633 2.54918,-4.19347 4.83553,-8.21584 6.86576,-12.07029 -1.71802,-0.30939 -3.36867,-1.08303 -4.74909,-2.3241"
         style="fill:#ffffff;fill-opacity:1;fill-rule:nonzero;stroke:none;stroke-width:0.35277778"
         id="path4998"
         inkscape:connector-curvature="0" />
      <path
         d="m 460.66961,345.70716 c 1.72191,1.72261 1.72226,4.5145 0,6.23641 -1.72226,1.72261 -4.51414,1.72261 -6.23641,0 -1.7219,-1.72191 -1.72226,-4.5138 0,-6.23641 1.72227,-1.72191 4.5145,-1.72191 6.23641,0"
         style="fill:#da1259;fill-opacity:1;fill-rule:nonzero;stroke:none;stroke-width:0.35277778"
         id="path5000"
         inkscape:connector-curvature="0" />
      <path
         d="m 468.94401,353.69013 c 1.72226,1.72191 1.72226,4.51379 0,6.23641 -1.72226,1.7219 -4.51414,1.7219 -6.23605,0 -1.72191,-1.72191 -1.72262,-4.5145 -3.6e-4,-6.23641 1.72227,-1.72261 4.5145,-1.72191 6.23641,0"
         style="fill:#da1259;fill-opacity:1;fill-rule:nonzero;stroke:none;stroke-width:0.35277778"
         id="path5002"
         inkscape:connector-curvature="0" />
      <path
         d="m 477.06238,361.67243 c 1.72226,1.72191 1.72261,4.51379 0,6.23641 -1.72226,1.72261 -4.51414,1.7219 -6.23641,0 -1.7219,-1.72191 -1.72226,-4.5138 0,-6.23641 1.72262,-1.72191 4.5145,-1.72191 6.23641,0"
         style="fill:#da1259;fill-opacity:1;fill-rule:nonzero;stroke:none;stroke-width:0.35277778"
         id="path5004"
         inkscape:connector-curvature="0" />
    </g>
  </g>
</svg>
