<?xml version="1.0" encoding="UTF-8" standalone="no"?>
<!-- Created with Inkscape (http://www.inkscape.org/) -->

<svg
   xmlns:dc="http://purl.org/dc/elements/1.1/"
   xmlns:cc="http://creativecommons.org/ns#"
   xmlns:rdf="http://www.w3.org/1999/02/22-rdf-syntax-ns#"
   xmlns:svg="http://www.w3.org/2000/svg"
   xmlns="http://www.w3.org/2000/svg"
   xmlns:sodipodi="http://sodipodi.sourceforge.net/DTD/sodipodi-0.dtd"
   xmlns:inkscape="http://www.inkscape.org/namespaces/inkscape"
   width="245.88469mm"
   height="220.24976mm"
   viewBox="0 0 245.88469 220.24976"
   version="1.1"
   id="svg3426"
   inkscape:version="0.92.5 (2060ec1f9f, 2020-04-08)"
   sodipodi:docname="logo_quad.svg">
  <defs
     id="defs3420" />
  <sodipodi:namedview
     id="base"
     pagecolor="#ffffff"
     bordercolor="#666666"
     borderopacity="1.0"
     inkscape:pageopacity="0.0"
     inkscape:pageshadow="2"
     inkscape:zoom="0.35"
     inkscape:cx="624.66396"
     inkscape:cy="161.93429"
     inkscape:document-units="mm"
     inkscape:current-layer="layer1"
     showgrid="false"
     inkscape:pagecheckerboard="true"
     fit-margin-top="0"
     fit-margin-left="0"
     fit-margin-right="0"
     fit-margin-bottom="0"
     inkscape:window-width="1920"
     inkscape:window-height="1016"
     inkscape:window-x="0"
     inkscape:window-y="27"
     inkscape:window-maximized="1" />
  <metadata
     id="metadata3423">
    <rdf:RDF>
      <cc:Work
         rdf:about="">
        <dc:format>image/svg+xml</dc:format>
        <dc:type
           rdf:resource="http://purl.org/dc/dcmitype/StillImage" />
        <dc:title></dc:title>
      </cc:Work>
    </rdf:RDF>
  </metadata>
  <g
     inkscape:label="Layer 1"
     inkscape:groupmode="layer"
     id="layer1"
     transform="translate(202.31734,28.571305)">
    <g
       transform="translate(-520.85118,-50.648813)"
       id="g1145"
       inkscape:export-xdpi="96"
       inkscape:export-ydpi="96">
      <path
         d="m 529.11941,110.27195 c 0,48.70838 -39.48606,88.19444 -88.19444,88.19444 -48.70838,0 -88.19444,-39.48606 -88.19444,-88.19444 0,-48.708027 39.48606,-88.194442 88.19444,-88.194442 48.70838,0 88.19444,39.486415 88.19444,88.194442"
         style="fill:#37ab9c;fill-opacity:1;fill-rule:nonzero;stroke:none;stroke-width:0.35277778"
         id="path873"
         inkscape:connector-curvature="0" />
      <path
         d="m 450.83273,114.57108 c -2.11914,4.46899 -4.98228,9.82486 -8.84837,16.18509 -0.34784,0.57256 -0.70132,1.14794 -1.05939,1.7265 -0.35843,-0.57785 -0.71156,-1.15394 -1.05975,-1.7265 -13.74704,-22.61517 -14.81525,-32.534223 -14.81525,-35.035417 0,-7.018867 1.67569,-12.453761 4.8454,-15.71625 2.53083,-2.604558 6.44842,-4.039305 11.0296,-4.039305 4.58152,0 8.49877,1.434747 11.02995,4.039305 3.16935,3.262489 4.84505,8.697383 4.84505,15.71625 0,1.350786 -0.31539,4.867977 -2.76472,11.371787 l 4.74556,2.36538 c 2.83739,-7.39951 3.31082,-11.705873 3.31082,-13.737167 0,-8.423981 -2.19322,-15.133461 -6.34188,-19.404189 -3.5359,-3.63855 -8.8011,-5.643033 -14.82478,-5.643033 -6.02368,0 -11.28854,2.004483 -14.82478,5.643033 -4.14867,4.270728 -6.34189,10.980208 -6.34189,19.404189 0,3.651955 1.51871,14.643097 15.58572,37.784617 1.75295,2.8836 3.6195,5.82224 5.58095,8.78558 1.96038,-2.96193 3.82693,-5.89986 5.58094,-8.78629 4.01179,-6.59941 7.00017,-12.20752 9.22655,-16.94215 -1.74484,-0.19156 -3.44629,-0.85513 -4.89973,-1.99143"
         style="fill:#ffffff;fill-opacity:1;fill-rule:nonzero;stroke:none;stroke-width:0.35277778"
         id="path877"
         inkscape:connector-curvature="0" />
      <path
         d="m 458.81362,122.31498 c -2.07363,4.12044 -4.63127,8.74854 -7.78616,13.93896 -3.60856,5.93654 -7.20725,11.30123 -10.1025,15.44355 -2.89595,-4.14302 -6.49463,-9.50772 -10.1032,-15.44355 C 416.59141,112.8429 414.46663,100.81 414.46663,95.720828 c 0,-9.828742 2.71075,-17.813866 7.83837,-23.091775 4.54131,-4.6736 11.15378,-7.247113 18.61996,-7.247113 7.46549,0 14.07866,2.573513 18.61997,7.247113 5.12762,5.277909 7.83837,13.263033 7.83837,23.091775 0,3.14078 -0.81386,8.929862 -4.77626,18.399122 l 4.68877,2.51531 c 4.2351,-9.98432 5.37915,-16.642999 5.37915,-20.914432 0,-11.233855 -3.22791,-20.494272 -9.33485,-26.779361 -5.54672,-5.707944 -13.5068,-8.851194 -22.41515,-8.851194 -8.90834,0 -16.86912,3.14325 -22.41514,8.851194 -6.10694,6.285089 -9.33485,15.545506 -9.33485,26.779361 0,6.892922 2.97109,19.996852 17.12559,43.282302 5.72559,9.41882 11.37709,17.36866 14.6244,21.77168 3.24732,-4.40231 8.89812,-12.35216 14.62441,-21.77238 3.25825,-5.36011 5.91749,-10.17411 8.09096,-14.5034 -1.73426,-0.25683 -3.41066,-0.98637 -4.82671,-2.18405"
         style="fill:#ffffff;fill-opacity:1;fill-rule:nonzero;stroke:none;stroke-width:0.35277778"
         id="path881"
         inkscape:connector-curvature="0" />
      <path
         d="m 466.70943,130.10569 c -1.96074,3.70558 -4.17089,7.58684 -6.63822,11.6459 -8.77111,14.42861 -17.39335,25.50266 -17.75601,25.96691 l -1.3903,1.77906 -1.38994,-1.77906 c -0.36301,-0.46425 -8.98525,-11.5383 -17.75601,-25.96691 -11.8745,-19.53436 -17.89571,-35.02166 -17.89571,-46.030796 0,-12.638617 3.74544,-23.174325 10.83133,-30.466947 6.55179,-6.741936 15.85983,-10.455275 26.21033,-10.455275 10.3505,0 19.6589,3.713339 26.21033,10.455275 7.0859,7.292622 10.83134,17.82833 10.83134,30.466947 0,7.074256 -2.48991,15.999886 -7.41751,26.657656 l 4.87574,2.02776 c 5.20383,-11.32628 7.83344,-20.9303 7.83344,-28.685416 0,-14.043378 -4.26297,-25.854025 -12.32782,-34.154533 -7.5565,-7.77628 -18.21251,-12.059355 -30.00552,-12.059355 -11.79301,0 -22.44901,4.283075 -30.00551,12.059355 -8.06485,8.300508 -12.32782,20.111155 -12.32782,34.154533 0,11.993036 6.28015,28.404956 18.66547,48.779286 8.93163,14.69249 17.73767,26.00219 18.10773,26.47633 l 5.56013,7.11658 5.56013,-7.11658 c 0.37042,-0.47414 9.17646,-11.78384 18.10773,-26.47633 2.54918,-4.19347 4.83553,-8.21584 6.86576,-12.07029 -1.71802,-0.30939 -3.36867,-1.08303 -4.74909,-2.3241"
         style="fill:#ffffff;fill-opacity:1;fill-rule:nonzero;stroke:none;stroke-width:0.35277778"
         id="path885"
         inkscape:connector-curvature="0" />
      <path
         d="m 459.91366,103.8024 c 1.72191,1.72261 1.72226,4.5145 0,6.23641 -1.72226,1.72261 -4.51414,1.72261 -6.23641,0 -1.7219,-1.72191 -1.72226,-4.5138 0,-6.23641 1.72227,-1.72191 4.5145,-1.72191 6.23641,0"
         style="fill:#da1259;fill-opacity:1;fill-rule:nonzero;stroke:none;stroke-width:0.35277778"
         id="path889"
         inkscape:connector-curvature="0" />
      <path
         d="m 468.18806,111.78537 c 1.72226,1.72191 1.72226,4.51379 0,6.23641 -1.72226,1.7219 -4.51414,1.7219 -6.23605,0 -1.72191,-1.72191 -1.72262,-4.5145 -3.6e-4,-6.23641 1.72227,-1.72261 4.5145,-1.72191 6.23641,0"
         style="fill:#da1259;fill-opacity:1;fill-rule:nonzero;stroke:none;stroke-width:0.35277778"
         id="path893"
         inkscape:connector-curvature="0" />
      <path
         d="m 476.30643,119.76767 c 1.72226,1.72191 1.72261,4.51379 0,6.23641 -1.72226,1.72261 -4.51414,1.7219 -6.23641,0 -1.7219,-1.72191 -1.72226,-4.5138 0,-6.23641 1.72262,-1.72191 4.5145,-1.72191 6.23641,0"
         style="fill:#da1259;fill-opacity:1;fill-rule:nonzero;stroke:none;stroke-width:0.35277778"
         id="path897"
         inkscape:connector-curvature="0" />
      <path
         d="m 332.38037,216.17761 c -5.55625,0 -8.33437,3.96875 -8.33437,10.62743 0,6.92326 2.29305,11.20069 8.42256,11.0684 1.23473,0 2.38125,-0.13229 3.2191,-0.39687 0.79375,-0.26459 0.92604,-0.61736 0.92604,-1.45521 v -3.52778 l 4.49792,0.30868 v 7.62882 c -2.42535,1.27882 -5.90903,1.80799 -8.73125,1.80799 -8.95174,0 -13.84653,-5.02709 -13.84653,-15.08125 0,-11.50938 7.05556,-15.34583 13.84653,-15.34583 2.60174,0 5.64444,0.57326 8.29028,1.80798 v 7.49653 l -4.49792,0.30868 v -3.43958 c 0,-0.83785 -0.13229,-1.19063 -0.92604,-1.45521 -0.83785,-0.26459 -1.98438,-0.35278 -2.86632,-0.35278"
         style="fill:#ffffff;fill-opacity:1;fill-rule:nonzero;stroke:none;stroke-width:0.35277778"
         id="path901"
         inkscape:connector-curvature="0" />
      <path
         d="m 359.72029,230.68559 c 0,-4.93889 -1.19062,-7.9816 -4.7184,-7.9816 -3.48368,0 -4.89479,2.99861 -4.89479,7.23195 0,4.10104 0.57326,8.51076 4.80659,8.51076 3.43959,0 4.8066,-3.175 4.8066,-7.76111 m -4.45382,-11.86215 c 3.2632,0 9.83368,1.01423 9.83368,11.15659 0,8.46667 -4.7184,12.34723 -10.53923,12.34723 -5.90903,0 -9.78959,-3.79236 -9.78959,-11.77396 0,-9.17222 5.95313,-11.72986 10.49514,-11.72986"
         style="fill:#ffffff;fill-opacity:1;fill-rule:nonzero;stroke:none;stroke-width:0.35277778"
         id="path905"
         inkscape:connector-curvature="0" />
      <path
         d="m 367.79008,219.4849 h 7.45243 v 2.86632 c 1.5434,-2.20486 4.23333,-3.52778 7.14375,-3.52778 4.40972,0 7.01146,2.46945 7.01146,7.67292 v 11.50937 l 2.51354,0.13229 v 3.52778 h -10.49514 v -3.35139 l 1.45521,-0.13229 c 0.83785,-0.0882 1.27882,-0.35278 1.27882,-1.45521 v -9.08402 c 0,-2.91042 -0.61736,-4.7625 -3.61597,-4.7625 -2.91042,0 -4.54202,2.16076 -4.54202,4.45382 v 10.67152 l 2.51354,0.13229 v 3.52778 h -10.49513 v -3.35139 l 1.4552,-0.13229 c 0.83785,-0.0882 1.27882,-0.35278 1.27882,-1.45521 v -12.21493 c 0,-0.97014 -0.30868,-1.32291 -1.10243,-1.36701 l -1.85208,-0.13229 z"
         style="fill:#ffffff;fill-opacity:1;fill-rule:nonzero;stroke:none;stroke-width:0.35277778"
         id="path909"
         inkscape:connector-curvature="0" />
      <path
         d="m 415.01821,219.4849 v 3.43958 l -1.36701,0.0882 c -0.57327,0.0441 -0.92605,0.22048 -1.19063,1.05833 l -5.68854,17.59479 h -6.74688 l -6.17361,-17.55069 c -0.26458,-0.79375 -0.48507,-1.05834 -1.27882,-1.10243 l -1.27882,-0.0882 v -3.43958 h 10.36285 v 3.52778 l -2.68993,0.13229 4.54202,14.50799 h 0.0882 l 4.40972,-14.50799 -2.29305,-0.13229 v -3.52778 z"
         style="fill:#ffffff;fill-opacity:1;fill-rule:nonzero;stroke:none;stroke-width:0.35277778"
         id="path913"
         inkscape:connector-curvature="0" />
      <path
         d="m 431.20189,230.68559 c 0,-4.93889 -1.19062,-7.9816 -4.7184,-7.9816 -3.48368,0 -4.89479,2.99861 -4.89479,7.23195 0,4.10104 0.57326,8.51076 4.80659,8.51076 3.43959,0 4.8066,-3.175 4.8066,-7.76111 m -4.45382,-11.86215 c 3.2632,0 9.83368,1.01423 9.83368,11.15659 0,8.46667 -4.7184,12.34723 -10.53923,12.34723 -5.90903,0 -9.78959,-3.79236 -9.78959,-11.77396 0,-9.17222 5.95313,-11.72986 10.49514,-11.72986"
         style="fill:#ffffff;fill-opacity:1;fill-rule:nonzero;stroke:none;stroke-width:0.35277778"
         id="path917"
         inkscape:connector-curvature="0" />
      <path
         d="m 447.51786,238.00573 2.51354,0.13229 v 3.52778 h -10.49514 v -3.35139 l 1.45521,-0.13229 c 0.79375,-0.0882 1.27882,-0.35278 1.27882,-1.41111 v -12.25903 c 0,-0.97014 -0.26458,-1.27882 -1.10243,-1.27882 l -1.5434,-0.0882 v -3.66007 h 7.8934 z"
         style="fill:#ffffff;fill-opacity:1;fill-rule:nonzero;stroke:none;stroke-width:0.35277778"
         id="path921"
         inkscape:connector-curvature="0" />
      <path
         d="m 444.32046,210.22448 c 1.94028,0 3.35139,1.45521 3.35139,3.30729 0,1.85208 -1.41111,3.2191 -3.39549,3.2191 -2.02847,0 -3.35139,-1.36702 -3.35139,-3.2191 0,-1.85208 1.32292,-3.30729 3.39549,-3.30729"
         style="fill:#da1259;fill-opacity:1;fill-rule:nonzero;stroke:none;stroke-width:0.35277778"
         id="path925"
         inkscape:connector-curvature="0" />
      <path
         d="m 459.86508,216.70677 h -3.43958 c -0.92604,0 -1.01424,0.61736 -1.01424,1.36701 v 2.07257 l -4.49792,-0.30868 v -7.49652 h 23.06285 v 7.49652 l -4.49792,0.30868 v -2.07257 c 0,-0.83784 -0.0882,-1.36701 -1.27882,-1.36701 h -2.99861 v 21.07847 l 3.48368,0.13229 v 3.74827 h -12.43541 v -3.57188 l 2.33715,-0.13229 c 0.83785,-0.0882 1.27882,-0.35278 1.27882,-1.23472 z"
         style="fill:#ffffff;fill-opacity:1;fill-rule:nonzero;stroke:none;stroke-width:0.35277778"
         id="path929"
         inkscape:connector-curvature="0" />
      <path
         d="m 478.82688,224.51198 c 0,-0.97014 -0.26458,-1.27882 -1.10243,-1.32292 l -1.85208,-0.13229 v -3.57187 h 7.45243 v 3.30729 c 1.01423,-2.20486 3.35139,-3.96875 6.2618,-3.96875 1.45521,0 2.77813,0.26458 4.23334,0.97014 v 6.57048 l -4.10105,0.30868 v -2.02847 c 0,-0.52916 -0.0882,-0.92604 -0.44097,-1.10243 -0.39687,-0.17639 -0.70555,-0.22048 -1.19062,-0.22048 -2.38125,0 -4.01285,1.89618 -4.01285,4.45381 v 10.23056 l 3.83646,0.17639 v 3.48368 h -11.81806 v -3.35139 l 1.45521,-0.13229 c 0.83785,-0.0882 1.27882,-0.35278 1.27882,-1.45521 z"
         style="fill:#ffffff;fill-opacity:1;fill-rule:nonzero;stroke:none;stroke-width:0.35277778"
         id="path933"
         inkscape:connector-curvature="0" />
      <path
         d="m 511.14944,223.23316 c -0.66146,-0.30868 -2.02847,-0.57326 -3.39549,-0.57326 -4.18923,0 -5.60034,3.92465 -5.60034,8.68715 0,3.66007 0.88194,7.14375 4.58611,7.14375 2.73403,0 4.40972,-1.94028 4.40972,-3.83646 z m 5.11528,13.53785 c 0,0.97014 0.26458,1.23472 1.10243,1.27882 l 1.41111,0.0882 v 3.52778 h -7.01146 v -2.55764 l -0.13229,-0.0441 c -1.36701,1.98438 -3.61597,3.175 -6.04132,3.175 -6.21771,0 -8.81944,-4.40972 -8.81944,-10.71562 0,-7.76111 3.70416,-12.7 11.64166,-12.7 1.45521,0 4.67431,0.35278 7.84931,1.5434 z"
         style="fill:#ffffff;fill-opacity:1;fill-rule:nonzero;stroke:none;stroke-width:0.35277778"
         id="path937"
         inkscape:connector-curvature="0" />
      <path
         d="m 537.56301,236.33004 1.89618,3.39549 c -1.71979,1.41111 -4.40972,2.55763 -7.67292,2.55763 -6.48229,0 -10.31875,-4.10104 -10.31875,-11.42118 0,-8.95173 5.51216,-12.03854 10.49514,-12.03854 2.64584,0 4.7625,0.66146 6.87917,1.80799 v 5.73264 l -4.05694,0.30868 v -2.11667 c 0,-0.83785 -0.1323,-1.23472 -0.92605,-1.4993 -0.52916,-0.17639 -1.05833,-0.26459 -1.71979,-0.26459 -3.52778,0 -5.33576,2.64584 -5.33576,7.54063 0,4.8066 1.76389,7.8934 5.68854,7.8934 1.71979,0 3.26319,-0.57326 5.07118,-1.89618"
         style="fill:#ffffff;fill-opacity:1;fill-rule:nonzero;stroke:none;stroke-width:0.35277778"
         id="path941"
         inkscape:connector-curvature="0" />
      <path
         d="m 544.75117,215.25156 c 0,-0.97014 -0.26458,-1.23472 -1.10243,-1.27882 l -1.5434,-0.0882 v -3.66007 h 7.8493 v 19.09409 c 3.1309,-0.30868 5.77674,-1.98437 6.70278,-4.85069 0.35278,-1.05833 -0.0882,-1.45521 -0.70556,-1.45521 l -1.67569,-0.0882 v -3.43959 h 9.12812 v 3.57188 l -2.11666,0.0882 c -0.39688,3.04271 -1.5875,5.29167 -3.88056,7.09966 l 4.32153,7.76111 2.68993,0.13229 v 3.52778 h -6.43819 l -5.02709,-9.17223 c -0.92604,0.26459 -1.98437,0.48507 -2.99861,0.61736 v 4.8948 h 0.0441 l 2.51354,0.13229 v 3.52778 h -10.49514 v -3.35139 l 1.45521,-0.13229 c 0.83785,-0.0882 1.27882,-0.35278 1.27882,-1.45521 z"
         style="fill:#ffffff;fill-opacity:1;fill-rule:nonzero;stroke:none;stroke-width:0.35277778"
         id="path945"
         inkscape:connector-curvature="0" />
    </g>
  </g>
</svg>
