<svg
        xmlns="http://www.w3.org/2000/svg"
        width="666.667"
        height="666.667"
        version="1.1"
        viewBox="0 0 176.389 176.389"
>
    <g transform="translate(-16.883 -6.21)">
        <g
                fillOpacity="1"
                fillRule="nonzero"
                stroke="none"
                strokeWidth="0.353"
                transform="translate(-336.604 -257.772)"
        >
            <path
                    fill="#37ab9c"
                    d="M529.875 352.177c0 48.708-39.486 88.194-88.194 88.194-48.708 0-88.195-39.486-88.195-88.194 0-48.708 39.487-88.195 88.195-88.195 48.708 0 88.194 39.487 88.194 88.195"
            ></path>
            <path
                    fill="#fff"
                    d="M451.589 356.476c-2.12 4.469-4.983 9.825-8.849 16.185-.348.572-.701 1.148-1.06 1.726a229.53 229.53 0 01-1.059-1.726c-13.747-22.615-14.815-32.534-14.815-35.035 0-7.02 1.676-12.454 4.845-15.717 2.531-2.604 6.449-4.039 11.03-4.039 4.581 0 8.499 1.435 11.03 4.04 3.17 3.262 4.845 8.697 4.845 15.716 0 1.35-.315 4.867-2.765 11.371l4.746 2.366c2.837-7.4 3.31-11.706 3.31-13.737 0-8.424-2.193-15.134-6.341-19.405-3.536-3.638-8.801-5.643-14.825-5.643-6.024 0-11.289 2.005-14.825 5.643-4.149 4.271-6.342 10.98-6.342 19.405 0 3.651 1.519 14.643 15.586 37.784a271.01 271.01 0 005.58 8.786c1.961-2.962 3.828-5.9 5.582-8.787 4.012-6.599 7-12.207 9.226-16.942a9.65 9.65 0 01-4.9-1.991"
            ></path>
            <path
                    fill="#fff"
                    d="M459.57 364.22c-2.074 4.12-4.632 8.748-7.787 13.939-3.608 5.936-7.207 11.3-10.102 15.443-2.896-4.143-6.495-9.507-10.103-15.443-14.23-23.411-16.355-35.444-16.355-40.533 0-9.83 2.71-17.814 7.838-23.092 4.541-4.674 11.154-7.247 18.62-7.247 7.465 0 14.079 2.573 18.62 7.247 5.128 5.278 7.838 13.263 7.838 23.092 0 3.14-.814 8.93-4.776 18.399l4.689 2.515c4.235-9.984 5.379-16.643 5.379-20.914 0-11.234-3.228-20.495-9.335-26.78-5.547-5.708-13.507-8.851-22.415-8.851s-16.87 3.143-22.415 8.851c-6.107 6.285-9.335 15.546-9.335 26.78 0 6.893 2.971 19.996 17.126 43.282 5.725 9.419 11.377 17.369 14.624 21.772 3.247-4.403 8.898-12.353 14.624-21.773 3.259-5.36 5.918-10.174 8.091-14.503a9.65 9.65 0 01-4.826-2.184"
            ></path>
            <path
                    fill="#fff"
                    d="M467.465 372.01a225.8 225.8 0 01-6.638 11.646c-8.771 14.429-17.393 25.503-17.756 25.967l-1.39 1.78-1.39-1.78c-.363-.464-8.985-11.538-17.756-25.967-11.875-19.534-17.896-35.021-17.896-46.03 0-12.64 3.746-23.175 10.832-30.467 6.551-6.742 15.86-10.456 26.21-10.456 10.35 0 19.659 3.714 26.21 10.456 7.086 7.292 10.832 17.828 10.832 30.467 0 7.074-2.49 16-7.418 26.657l4.876 2.028c5.204-11.326 7.833-20.93 7.833-28.685 0-14.044-4.263-25.854-12.328-34.155-7.556-7.776-18.212-12.06-30.005-12.06s-22.45 4.284-30.006 12.06c-8.065 8.3-12.327 20.111-12.327 34.155 0 11.993 6.28 28.405 18.665 48.779 8.932 14.692 17.738 26.002 18.108 26.476l5.56 7.117 5.56-7.117c.37-.474 9.176-11.784 18.108-26.476a226.609 226.609 0 006.865-12.07 9.64 9.64 0 01-4.749-2.325"
            ></path>
            <path
                    fill="#da1259"
                    d="M460.67 345.707a4.41 4.41 0 11-6.237 6.237 4.41 4.41 0 016.237-6.237"
            ></path>
            <path
                    fill="#da1259"
                    d="M468.944 353.69a4.41 4.41 0 11-6.236 6.237 4.41 4.41 0 016.236-6.237"
            ></path>
            <path
                    fill="#da1259"
                    d="M477.062 361.672a4.41 4.41 0 11-6.235 6.237 4.41 4.41 0 016.235-6.237"
            ></path>
        </g>
    </g>
</svg>