<svg
        xmlns="http://www.w3.org/2000/svg"
        width="929.328"
        height="832.44"
        version="1.1"
        viewBox="0 0 245.885 220.25"
>
    <g transform="translate(202.317 28.571)">
        <g
                fillOpacity="1"
                fillRule="nonzero"
                stroke="none"
                strokeWidth="0.353"
                transform="translate(-520.851 -50.649)"
        >
            <path
                    fill="#37ab9c"
                    d="M529.12 110.272c0 48.708-39.487 88.194-88.195 88.194-48.708 0-88.194-39.486-88.194-88.194 0-48.708 39.486-88.194 88.194-88.194 48.708 0 88.194 39.486 88.194 88.194"
            ></path>
            <path
                    fill="#fff"
                    d="M450.833 114.571c-2.12 4.47-4.983 9.825-8.849 16.185-.347.573-.701 1.148-1.059 1.727a229.53 229.53 0 01-1.06-1.727c-13.747-22.615-14.815-32.534-14.815-35.035 0-7.02 1.676-12.454 4.845-15.716 2.531-2.605 6.449-4.04 11.03-4.04 4.581 0 8.499 1.435 11.03 4.04 3.17 3.262 4.845 8.697 4.845 15.716 0 1.35-.315 4.868-2.765 11.372l4.746 2.365c2.837-7.4 3.31-11.706 3.31-13.737 0-8.424-2.193-15.134-6.341-19.404-3.536-3.639-8.801-5.643-14.825-5.643-6.024 0-11.289 2.004-14.825 5.643-4.148 4.27-6.342 10.98-6.342 19.404 0 3.652 1.519 14.643 15.586 37.784a271.01 271.01 0 005.581 8.786c1.96-2.962 3.827-5.9 5.58-8.786 4.013-6.6 7.001-12.208 9.227-16.942a9.65 9.65 0 01-4.9-1.992"
            ></path>
            <path
                    fill="#fff"
                    d="M458.814 122.315c-2.074 4.12-4.632 8.749-7.787 13.939-3.608 5.936-7.207 11.301-10.102 15.443-2.896-4.143-6.495-9.507-10.103-15.443-14.23-23.411-16.355-35.444-16.355-40.533 0-9.829 2.71-17.814 7.838-23.092 4.541-4.674 11.154-7.247 18.62-7.247 7.465 0 14.079 2.573 18.62 7.247 5.128 5.278 7.838 13.263 7.838 23.092 0 3.14-.814 8.93-4.776 18.399l4.689 2.515c4.235-9.984 5.379-16.643 5.379-20.914 0-11.234-3.228-20.494-9.335-26.78-5.547-5.707-13.507-8.85-22.415-8.85s-16.87 3.143-22.415 8.85c-6.107 6.286-9.335 15.546-9.335 26.78 0 6.893 2.971 19.997 17.126 43.282 5.725 9.419 11.377 17.369 14.624 21.772 3.247-4.403 8.898-12.352 14.624-21.773 3.259-5.36 5.918-10.174 8.091-14.503a9.65 9.65 0 01-4.826-2.184"
            ></path>
            <path
                    fill="#fff"
                    d="M466.71 130.106a225.8 225.8 0 01-6.639 11.646c-8.77 14.428-17.393 25.502-17.756 25.967l-1.39 1.779-1.39-1.78c-.363-.464-8.985-11.538-17.756-25.966-11.875-19.535-17.896-35.022-17.896-46.031 0-12.639 3.746-23.175 10.832-30.467 6.551-6.742 15.86-10.455 26.21-10.455 10.35 0 19.659 3.713 26.21 10.455 7.086 7.292 10.832 17.828 10.832 30.467 0 7.074-2.49 16-7.418 26.657l4.876 2.028c5.204-11.326 7.833-20.93 7.833-28.685 0-14.044-4.263-25.854-12.328-34.155-7.556-7.776-18.212-12.06-30.005-12.06s-22.45 4.284-30.006 12.06c-8.064 8.3-12.327 20.111-12.327 34.155 0 11.993 6.28 28.405 18.665 48.78 8.932 14.692 17.738 26.001 18.108 26.475l5.56 7.117 5.56-7.117c.37-.474 9.176-11.783 18.108-26.476a226.609 226.609 0 006.866-12.07 9.64 9.64 0 01-4.75-2.324"
            ></path>
            <path
                    fill="#da1259"
                    d="M459.914 103.802a4.41 4.41 0 11-6.237 6.237 4.41 4.41 0 016.237-6.237"
            ></path>
            <path
                    fill="#da1259"
                    d="M468.188 111.785a4.41 4.41 0 11-6.236 6.237 4.41 4.41 0 016.236-6.237"
            ></path>
            <path
                    fill="#da1259"
                    d="M476.306 119.768a4.41 4.41 0 11-6.234 6.236 4.41 4.41 0 016.234-6.236"
            ></path>
            <path
                    fill="#1a1a1a"
                    d="M332.38 216.178c-5.556 0-8.334 3.968-8.334 10.627 0 6.923 2.293 11.2 8.423 11.068 1.234 0 2.38-.132 3.219-.396.793-.265.926-.618.926-1.456v-3.527l4.498.308v7.63c-2.426 1.278-5.91 1.807-8.732 1.807-8.951 0-13.846-5.027-13.846-15.081 0-11.51 7.055-15.346 13.846-15.346 2.602 0 5.645.573 8.29 1.808v7.496l-4.497.31v-3.44c0-.838-.133-1.191-.926-1.456-.838-.264-1.985-.352-2.867-.352"
            ></path>
            <path
                    fill="#1a1a1a"
                    d="M359.72 230.686c0-4.94-1.19-7.982-4.718-7.982-3.484 0-4.895 2.999-4.895 7.232 0 4.101.573 8.51 4.807 8.51 3.44 0 4.806-3.174 4.806-7.76m-4.454-11.863c3.264 0 9.834 1.015 9.834 11.157 0 8.467-4.718 12.347-10.54 12.347-5.908 0-9.789-3.792-9.789-11.774 0-9.172 5.953-11.73 10.495-11.73"
            ></path>
            <path
                    fill="#1a1a1a"
                    d="M367.79 219.485h7.453v2.866c1.543-2.205 4.233-3.528 7.143-3.528 4.41 0 7.012 2.47 7.012 7.673v11.51l2.513.132v3.528h-10.495v-3.352l1.455-.132c.838-.088 1.28-.353 1.28-1.455v-9.084c0-2.91-.618-4.763-3.617-4.763-2.91 0-4.542 2.161-4.542 4.454v10.672l2.514.132v3.528H368.01v-3.352l1.455-.132c.838-.088 1.279-.353 1.279-1.455v-12.215c0-.97-.31-1.323-1.103-1.367l-1.852-.132z"
            ></path>
            <path
                    fill="#1a1a1a"
                    d="M415.018 219.485v3.44l-1.367.088c-.573.044-.926.22-1.19 1.058l-5.689 17.595h-6.747l-6.173-17.55c-.265-.795-.486-1.06-1.28-1.103l-1.278-.089v-3.44h10.363v3.529l-2.69.132 4.542 14.508h.088l4.41-14.508-2.293-.132v-3.528z"
            ></path>
            <path
                    fill="#1a1a1a"
                    d="M431.202 230.686c0-4.94-1.19-7.982-4.719-7.982-3.483 0-4.894 2.999-4.894 7.232 0 4.101.573 8.51 4.806 8.51 3.44 0 4.807-3.174 4.807-7.76m-4.454-11.863c3.263 0 9.834 1.015 9.834 11.157 0 8.467-4.719 12.347-10.54 12.347-5.909 0-9.79-3.792-9.79-11.774 0-9.172 5.954-11.73 10.496-11.73"
            ></path>
            <path
                    fill="#1a1a1a"
                    d="M447.518 238.006l2.513.132v3.528h-10.495v-3.352l1.455-.132c.794-.088 1.28-.353 1.28-1.411v-12.259c0-.97-.265-1.279-1.103-1.279l-1.544-.088v-3.66h7.894z"
            ></path>
            <path
                    fill="#da1259"
                    d="M444.32 210.224c1.94 0 3.352 1.456 3.352 3.308 0 1.852-1.411 3.219-3.396 3.219-2.028 0-3.351-1.367-3.351-3.22 0-1.851 1.323-3.307 3.395-3.307"
            ></path>
            <path
                    fill="#1a1a1a"
                    d="M459.865 216.707h-3.44c-.926 0-1.014.617-1.014 1.367v2.072l-4.498-.308v-7.497h23.063v7.497l-4.498.308v-2.072c0-.838-.088-1.367-1.279-1.367h-2.998v21.078l3.484.133v3.748h-12.436v-3.572l2.337-.132c.838-.089 1.28-.353 1.28-1.235z"
            ></path>
            <path
                    fill="#1a1a1a"
                    d="M478.827 224.512c0-.97-.265-1.279-1.103-1.323l-1.852-.132v-3.572h7.453v3.307a6.897 6.897 0 016.262-3.969c1.455 0 2.778.265 4.233.97v6.571l-4.101.309v-2.029c0-.529-.088-.926-.441-1.102-.397-.177-.706-.22-1.19-.22-2.382 0-4.014 1.896-4.014 4.453v10.23l3.837.177v3.484h-11.818v-3.352l1.455-.132c.838-.088 1.279-.353 1.279-1.455z"
            ></path>
            <path
                    fill="#1a1a1a"
                    d="M511.15 223.233c-.662-.309-2.029-.573-3.396-.573-4.19 0-5.6 3.925-5.6 8.687 0 3.66.882 7.144 4.586 7.144 2.734 0 4.41-1.94 4.41-3.837zm5.115 13.538c0 .97.264 1.235 1.102 1.279l1.411.088v3.528h-7.011v-2.558l-.132-.044a7.325 7.325 0 01-6.042 3.175c-6.218 0-8.82-4.41-8.82-10.716 0-7.76 3.705-12.7 11.642-12.7 1.456 0 4.675.353 7.85 1.544z"
            ></path>
            <path
                    fill="#1a1a1a"
                    d="M537.563 236.33l1.896 3.396c-1.72 1.41-4.41 2.557-7.673 2.557-6.482 0-10.318-4.1-10.318-11.421 0-8.952 5.512-12.039 10.495-12.039 2.645 0 4.762.662 6.879 1.808v5.733l-4.057.309v-2.117c0-.838-.132-1.235-.926-1.5a5.216 5.216 0 00-1.72-.264c-3.528 0-5.336 2.646-5.336 7.54 0 4.807 1.764 7.894 5.689 7.894 1.72 0 3.263-.573 5.071-1.896"
            ></path>
            <path
                    fill="#1a1a1a"
                    d="M544.751 215.252c0-.97-.264-1.235-1.102-1.28l-1.544-.087v-3.66h7.85v19.094c3.13-.31 5.776-1.985 6.702-4.851.353-1.058-.088-1.455-.705-1.455l-1.676-.089v-3.44h9.128v3.573l-2.116.088c-.397 3.043-1.588 5.292-3.88 7.1l4.32 7.76 2.69.133v3.528h-6.438l-5.027-9.172c-.926.264-1.984.485-2.998.617v4.895h.044l2.513.132v3.528h-10.495v-3.352l1.455-.132c.838-.088 1.28-.353 1.28-1.455z"
            ></path>
        </g>
    </g>
</svg>